<svg xmlns="http://www.w3.org/2000/svg" xmlns:xlink="http://www.w3.org/1999/xlink" version="1.1" id="Capa_1" x="0px" y="0px" width="28px" height="28px" fill="#fff" viewBox="0 0 46 46" style="enable-background:new 0 0 46 46;" xml:space="preserve">
<g>
	<g>
		<path d="M46,5.296C46,2.371,43.629,0,40.704,0H5.296C2.371,0,0,2.371,0,5.296v35.408C0,43.629,2.371,46,5.296,46h35.408    C43.629,46,46,43.629,46,40.704V5.296z M37.866,24.965c-0.198,0.199-9.913,9.866-13.49,13.426c-0.722,0.717-1.887,0.717-2.608,0    c-3.577-3.561-13.29-13.227-13.49-13.426c-4.091-4.093-4.091-10.731,0-14.824c4.085-4.083,10.699-4.092,14.794-0.029    c4.095-4.063,10.711-4.054,14.794,0.029C41.959,14.233,41.959,20.872,37.866,24.965z"/>
	</g>
</g>
</svg>
